<svg xmlns="http://www.w3.org/2000/svg" width="1920" height="1080" viewBox="0 0 1920 1080" font-family="'Malgun Gothic', '맑은 고딕', 'Noto Sans KR', sans-serif"><rect width="1920" height="1080" fill="#FFFFFF"/><text x="60" y="66" font-size="18" font-weight="700" fill="#64748B" text-anchor="start" >색 구분</text><rect x="60" y="77" width="18" height="18" rx="4" fill="#2563EB" stroke="#2563EB" stroke-width="2" /><text x="88" y="92" font-size="19" font-weight="400" fill="#334155" text-anchor="start" >AI가 판단하는 부분</text><rect x="60" y="107" width="18" height="18" rx="4" fill="#475569" stroke="#475569" stroke-width="2" /><text x="88" y="122" font-size="19" font-weight="400" fill="#334155" text-anchor="start" >규칙(코드)이 통제하는 부분</text><rect x="60" y="137" width="18" height="18" rx="4" fill="#0F766E" stroke="#0F766E" stroke-width="2" /><text x="88" y="152" font-size="19" font-weight="400" fill="#334155" text-anchor="start" >사람</text><rect x="470" y="40" width="930" height="100" rx="16" fill="#fff" stroke="#CBD5E1" stroke-width="2" /><g transform="translate(496,74) scale(1.25)" fill="none" stroke="#64748B" color="#64748B" stroke-width="1.760" stroke-linecap="round" stroke-linejoin="round"><path d="M4 5a2 2 0 0 1 2-2h13v16H6a2 2 0 0 0-2 2z"/><path d="M4 21V5M8 7h7"/></g><text x="538" y="98" font-size="24" font-weight="700" fill="#0F172A" text-anchor="start" >참고 지식</text><rect x="680" y="66" width="202" height="48" rx="24" fill="#F8FAFC" stroke="#CBD5E1" stroke-width="1.5" /><text x="781.0" y="97" font-size="19" font-weight="700" fill="#334155" text-anchor="middle" >배포된 서비스 코드</text><rect x="900" y="66" width="183" height="48" rx="24" fill="#F8FAFC" stroke="#CBD5E1" stroke-width="1.5" /><text x="991.5" y="97" font-size="19" font-weight="700" fill="#334155" text-anchor="middle" >데이터 흐름 지도</text><rect x="1101" y="66" width="164" height="48" rx="24" fill="#F8FAFC" stroke="#CBD5E1" stroke-width="1.5" /><text x="1183.0" y="97" font-size="19" font-weight="700" fill="#334155" text-anchor="middle" >과거 사건 기록</text><rect x="1480" y="40" width="380" height="100" rx="16" fill="#fff" stroke="#2563EB" stroke-width="2" /><g transform="translate(1504,66) scale(1.25)" fill="none" stroke="#2563EB" color="#2563EB" stroke-width="1.760" stroke-linecap="round" stroke-linejoin="round"><rect x="7" y="7" width="10" height="10" rx="1.5"/><path d="M10 3v4M14 3v4M10 17v4M14 17v4M3 10h4M3 14h4M17 10h4M17 14h4"/></g><text x="1546" y="88" font-size="23" font-weight="700" fill="#1E40AF" text-anchor="start" >사내 LLM 게이트웨이</text><text x="1546" y="118" font-size="18" font-weight="400" fill="#64748B" text-anchor="start" >AI 판단에 쓰는 언어 모델</text><rect x="470" y="190" width="930" height="440" rx="22" fill="#FCFDFE" stroke="#475569" stroke-width="2.5" stroke-dasharray="10 7" /><text x="498" y="234" font-size="26" font-weight="700" fill="#0F172A" text-anchor="start" >조사 엔진</text><text x="624" y="233" font-size="17" font-weight="400" fill="#64748B" text-anchor="start" >점선 = 규칙이 정한 울타리</text><rect x="957.5" y="614.5" width="420.9999999999999" height="31" rx="15.5" fill="#fff" stroke="#475569" stroke-width="1.5" /><g transform="translate(969.5,621.5) scale(0.7083333333333334)" fill="none" stroke="#475569" color="#475569" stroke-width="3.106" stroke-linecap="round" stroke-linejoin="round"><rect x="5" y="11" width="14" height="10" rx="2"/><path d="M8 11V8a4 4 0 0 1 8 0v3"/></g><text x="992.5" y="636.12" font-size="17" font-weight="700" fill="#1E293B" text-anchor="start" >반복 횟수 상한 · 허용된 조회만 · 쓰기 불가</text><rect x="495" y="270" width="210" height="150" rx="16" fill="#F1F5F9" stroke="#475569" stroke-width="2" /><g transform="translate(515,288.0) scale(1.1666666666666667)" fill="none" stroke="#475569" color="#475569" stroke-width="1.886" stroke-linecap="round" stroke-linejoin="round"><path d="M3 7a1 1 0 0 1 1-1h5l2 2h9a1 1 0 0 1 1 1v9a1 1 0 0 1-1 1H4a1 1 0 0 1-1-1z"/><path d="M3 11h18"/></g><text x="555" y="310.4" font-size="24" font-weight="700" fill="#1E293B" text-anchor="start" >사건 파일</text><text x="515" y="348.54999999999995" font-size="19" font-weight="400" fill="#334155" text-anchor="start" >증상·증거·경과</text><text x="515" y="374.19999999999993" font-size="17" font-weight="400" fill="#64748B" text-anchor="start" >같은 문제는</text><text x="515" y="397.1499999999999" font-size="17" font-weight="400" fill="#64748B" text-anchor="start" >한 파일에 누적</text><rect x="740" y="260" width="280" height="150" rx="16" fill="#EFF6FF" stroke="#2563EB" stroke-width="2" /><g transform="translate(762,280.0) scale(1.1666666666666667)" fill="none" stroke="#2563EB" color="#2563EB" stroke-width="1.886" stroke-linecap="round" stroke-linejoin="round"><path d="M12 3l1.8 5.2L19 10l-5.2 1.8L12 17l-1.8-5.2L5 10l5.2-1.8z"/><path d="M19 16l.7 2 2 .7-2 .7-.7 2-.7-2-2-.7 2-.7z"/></g><text x="802" y="302.4" font-size="24" font-weight="700" fill="#1E40AF" text-anchor="start" >AI 조사 책임자</text><text x="762" y="341.79999999999995" font-size="20" font-weight="400" fill="#334155" text-anchor="start" >가설을 세우고</text><text x="762" y="370.79999999999995" font-size="20" font-weight="400" fill="#334155" text-anchor="start" >다음에 볼 것을 결정</text><rect x="1110" y="270" width="262" height="150" rx="16" fill="#F1F5F9" stroke="#475569" stroke-width="2" /><g transform="translate(1132,290.0) scale(1.1666666666666667)" fill="none" stroke="#475569" color="#475569" stroke-width="1.886" stroke-linecap="round" stroke-linejoin="round"><path d="M12 3l7 3v5c0 4.6-3 8.4-7 10-4-1.6-7-5.4-7-10V6z"/><path d="M9 12l2 2 4-4"/></g><text x="1172" y="312.4" font-size="24" font-weight="700" fill="#1E293B" text-anchor="start" >근거 검증</text><text x="1132" y="350.54999999999995" font-size="19" font-weight="400" fill="#334155" text-anchor="start" >결론이 인용한 증거가</text><text x="1132" y="378.09999999999997" font-size="19" font-weight="400" fill="#334155" text-anchor="start" >실제 기록인지 대조</text><rect x="590" y="490" width="190" height="104" rx="16" fill="#FFFFFF" stroke="#475569" stroke-width="2" /><g transform="translate(608,506.0) scale(1.0416666666666667)" fill="none" stroke="#475569" color="#475569" stroke-width="2.112" stroke-linecap="round" stroke-linejoin="round"><ellipse cx="12" cy="6" rx="7" ry="2.8"/><path d="M5 6v12c0 1.5 3.1 2.8 7 2.8s7-1.3 7-2.8V6"/><path d="M5 12c0 1.5 3.1 2.8 7 2.8s7-1.3 7-2.8"/></g><text x="645" y="525.85" font-size="21" font-weight="700" fill="#1E293B" text-anchor="start" >데이터 조회</text><text x="608" y="558.45" font-size="16" font-weight="400" fill="#64748B" text-anchor="start" >저장소·메시지·API</text><rect x="800" y="490" width="190" height="104" rx="16" fill="#FFFFFF" stroke="#475569" stroke-width="2" /><g transform="translate(818,506.0) scale(1.0416666666666667)" fill="none" stroke="#475569" color="#475569" stroke-width="2.112" stroke-linecap="round" stroke-linejoin="round"><path d="M8 7l-5 5 5 5M16 7l5 5-5 5M14 4l-4 16"/></g><text x="855" y="525.85" font-size="21" font-weight="700" fill="#1E293B" text-anchor="start" >코드 추적</text><text x="818" y="558.45" font-size="16" font-weight="400" fill="#64748B" text-anchor="start" >배포된 서비스 코드</text><rect x="1010" y="490" width="190" height="104" rx="16" fill="#FFFFFF" stroke="#475569" stroke-width="2" /><g transform="translate(1028,506.0) scale(1.0416666666666667)" fill="none" stroke="#475569" color="#475569" stroke-width="2.112" stroke-linecap="round" stroke-linejoin="round"><rect x="5" y="3" width="14" height="18" rx="2"/><path d="M8 7h8M8 12h2M14 12h2M8 16h2M14 16h2"/></g><text x="1065" y="525.85" font-size="21" font-weight="700" fill="#1E293B" text-anchor="start" >재계산 대조</text><text x="1028" y="558.45" font-size="16" font-weight="400" fill="#64748B" text-anchor="start" >원천에서 다시 계산</text><path d="M440.0,345.0 L481.0,345.0" fill="none" stroke="#64748B" stroke-width="2.5" stroke-linejoin="round"/><polygon points="493.0,345.0 478.0,351.3 478.0,338.7" fill="#64748B"/><path d="M705.0,335.0 L726.0,335.0" fill="none" stroke="#64748B" stroke-width="2.5" stroke-linejoin="round"/><polygon points="738.0,335.0 723.0,341.3 723.0,328.7" fill="#64748B"/><path d="M860.0,410.0 L860.0,475.0" fill="none" stroke="#64748B" stroke-width="2.5" stroke-linejoin="round"/><polygon points="860.0,487.0 853.7,472.0 866.3,472.0" fill="#64748B"/><path d="M920.0,490.0 L920.0,425.0" fill="none" stroke="#64748B" stroke-width="2.5" stroke-linejoin="round"/><polygon points="920.0,413.0 926.3,428.0 913.7,428.0" fill="#64748B"/><text x="848" y="456" font-size="16" font-weight="700" fill="#64748B" text-anchor="end" >조사 지시</text><text x="932" y="456" font-size="16" font-weight="700" fill="#64748B" text-anchor="start" >결과</text><path d="M640.0,490.0 L640.0,435.0" fill="none" stroke="#64748B" stroke-width="2.5" stroke-linejoin="round"/><polygon points="640.0,423.0 646.3,438.0 633.7,438.0" fill="#64748B"/><text x="628" y="462" font-size="16" font-weight="700" fill="#64748B" text-anchor="end" >증거 기록</text><path d="M1020.0,318.0 L1095.0,318.0" fill="none" stroke="#64748B" stroke-width="2.5" stroke-linejoin="round"/><polygon points="1107.0,318.0 1092.0,324.3 1092.0,311.7" fill="#64748B"/><text x="1064" y="306" font-size="16" font-weight="700" fill="#64748B" text-anchor="middle" >결론</text><path d="M1110.0,378.0 L1035.0,378.0" fill="none" stroke="#64748B" stroke-width="2.5" stroke-linejoin="round" stroke-dasharray="6 5"/><polygon points="1023.0,378.0 1038.0,371.7 1038.0,384.3" fill="#64748B"/><text x="1064" y="402" font-size="15" font-weight="700" fill="#64748B" text-anchor="middle" >근거 부족 시</text><text x="1064" y="421" font-size="15" font-weight="700" fill="#64748B" text-anchor="middle" >다시 작성</text><path d="M880.0,140.0 L880.0,245.0" fill="none" stroke="#64748B" stroke-width="2.5" stroke-linejoin="round"/><polygon points="880.0,257.0 873.7,242.0 886.3,242.0" fill="#64748B"/><text x="892" y="176" font-size="16" font-weight="700" fill="#64748B" text-anchor="start" >참고</text><path d="M1600.0,140.0 L1600.0,165.0 L990.0,165.0 L990.0,245.0" fill="none" stroke="#2563EB" stroke-width="2.2" stroke-linejoin="round" stroke-dasharray="7 6"/><polygon points="990.0,257.0 983.7,242.0 996.3,242.0" fill="#2563EB"/><text x="1300" y="159" font-size="15" font-weight="700" fill="#2563EB" text-anchor="middle" >언어 모델 호출</text><text x="60" y="222" font-size="19" font-weight="700" fill="#64748B" text-anchor="start" letter-spacing="2">입구</text><rect x="60" y="240" width="330" height="160" rx="16" fill="#ECFDF5" stroke="#0F766E" stroke-width="2" /><g transform="translate(84,262.0) scale(1.2083333333333333)" fill="none" stroke="#0F766E" color="#0F766E" stroke-width="1.821" stroke-linecap="round" stroke-linejoin="round"><path d="M4 5h16a1 1 0 0 1 1 1v10a1 1 0 0 1-1 1H10l-5 4v-4H4a1 1 0 0 1-1-1V6a1 1 0 0 1 1-1z"/><path d="M8 10h8M8 13h5"/></g><text x="125" y="285.25" font-size="25" font-weight="700" fill="#115E59" text-anchor="start" >담당자 문의</text><text x="84" y="325.25" font-size="20" font-weight="400" fill="#334155" text-anchor="start" >증상을 말로 설명하면</text><text x="84" y="354.25" font-size="20" font-weight="400" fill="#334155" text-anchor="start" >AI가 되물어 사건 접수</text><rect x="60" y="460" width="330" height="160" rx="16" fill="#F1F5F9" stroke="#475569" stroke-width="2" /><g transform="translate(84,482.0) scale(1.2083333333333333)" fill="none" stroke="#475569" color="#475569" stroke-width="1.821" stroke-linecap="round" stroke-linejoin="round"><circle cx="12" cy="12" r="9"/><circle cx="12" cy="12" r="5"/><path d="M12 12l6-6"/><circle cx="12" cy="12" r="1" fill="currentColor"/></g><text x="125" y="505.25" font-size="25" font-weight="700" fill="#1E293B" text-anchor="start" >자동 순찰</text><text x="84" y="545.25" font-size="20" font-weight="400" fill="#334155" text-anchor="start" >28개 사이트 정기 점검</text><text x="84" y="574.25" font-size="20" font-weight="400" fill="#334155" text-anchor="start" >이상 발견 시 자동 개설</text><path d="M390.0,320.0 L440.0,320.0 L440.0,345.0" fill="none" stroke="#64748B" stroke-width="2.5" stroke-linejoin="round"/><path d="M390.0,540.0 L440.0,540.0 L440.0,345.0" fill="none" stroke="#64748B" stroke-width="2.5" stroke-linejoin="round"/><text x="1480" y="222" font-size="19" font-weight="700" fill="#64748B" text-anchor="start" letter-spacing="2">결과와 조치</text><rect x="1480" y="240" width="380" height="200" rx="16" fill="#FFFFFF" stroke="#94A3B8" stroke-width="2" /><g transform="translate(1504,262.0) scale(1.2083333333333333)" fill="none" stroke="#94A3B8" color="#94A3B8" stroke-width="1.821" stroke-linecap="round" stroke-linejoin="round"><path d="M6 3h8l4 4v13a1 1 0 0 1-1 1H6a1 1 0 0 1-1-1V4a1 1 0 0 1 1-1z"/><path d="M14 3v4h4"/><path d="M8 12h8M8 16h6"/></g><text x="1545" y="285.25" font-size="25" font-weight="700" fill="#0F172A" text-anchor="start" >조사 보고서</text><text x="1504" y="325.25" font-size="20" font-weight="400" fill="#334155" text-anchor="start" >· 원인과 근거 증거</text><text x="1504" y="354.25" font-size="20" font-weight="400" fill="#334155" text-anchor="start" >· 조치 권고</text><text x="1504" y="383.25" font-size="20" font-weight="400" fill="#334155" text-anchor="start" >· 확인하지 못한 것</text><text x="1504" y="412.25" font-size="20" font-weight="400" fill="#334155" text-anchor="start" >· 근거 검증 결과</text><rect x="1781.0" y="259.5" width="50.0" height="29" rx="14.5" fill="#F8FAFC" stroke="#CBD5E1" stroke-width="1.5" /><text x="1791.0" y="279.4" font-size="15" font-weight="700" fill="#64748B" text-anchor="start" >메일</text><path d="M1372.0,345.0 L1465.0,345.0" fill="none" stroke="#64748B" stroke-width="2.5" stroke-linejoin="round"/><polygon points="1477.0,345.0 1462.0,351.3 1462.0,338.7" fill="#64748B"/><rect x="1480" y="500" width="380" height="120" rx="16" fill="#ECFDF5" stroke="#0F766E" stroke-width="2" /><g transform="translate(1504,522.0) scale(1.2083333333333333)" fill="none" stroke="#0F766E" color="#0F766E" stroke-width="1.821" stroke-linecap="round" stroke-linejoin="round"><circle cx="12" cy="8" r="4"/><path d="M4 21c0-4.4 3.6-7 8-7s8 2.6 8 7"/></g><text x="1545" y="545.25" font-size="25" font-weight="700" fill="#115E59" text-anchor="start" >담당자</text><text x="1504" y="585.25" font-size="20" font-weight="400" fill="#334155" text-anchor="start" >판단하고 조치를 실행</text><path d="M1670.0,440.0 L1670.0,485.0" fill="none" stroke="#64748B" stroke-width="2.5" stroke-linejoin="round"/><polygon points="1670.0,497.0 1663.7,482.0 1676.3,482.0" fill="#64748B"/><path d="M1414.0,575.0 L1465.0,575.0" fill="none" stroke="#0F766E" stroke-width="2.2" stroke-linejoin="round" stroke-dasharray="6 5"/><polygon points="1477.0,575.0 1462.0,581.3 1462.0,568.7" fill="#0F766E"/><polygon points="1402.0,575.0 1417.0,568.7 1417.0,581.3" fill="#0F766E"/><text x="1440" y="563" font-size="15" font-weight="700" fill="#0F766E" text-anchor="middle" >질문·답변</text><rect x="1090" y="700" width="310" height="110" rx="16" fill="#F1F5F9" stroke="#475569" stroke-width="2" /><g transform="translate(1108,716.0) scale(1.0833333333333333)" fill="none" stroke="#475569" color="#475569" stroke-width="2.031" stroke-linecap="round" stroke-linejoin="round"><path d="M4 20h16"/><path d="M7 16v-4M12 16V8M17 16v-6"/></g><text x="1146" y="736.7" font-size="22" font-weight="700" fill="#1E293B" text-anchor="start" >정기 집계</text><text x="1108" y="771.1500000000001" font-size="17" font-weight="400" fill="#334155" text-anchor="start" >28개 사이트 알람을 매일 집계</text><text x="1108" y="794.95" font-size="17" font-weight="400" fill="#64748B" text-anchor="start" >숫자는 코드가, 설명은 AI가</text><rect x="1480" y="700" width="380" height="110" rx="16" fill="#FFFFFF" stroke="#94A3B8" stroke-width="2" /><g transform="translate(1502,720.0) scale(1.1666666666666667)" fill="none" stroke="#94A3B8" color="#94A3B8" stroke-width="1.886" stroke-linecap="round" stroke-linejoin="round"><rect x="3" y="5" width="18" height="14" rx="2"/><path d="M3 7l9 6 9-6"/></g><text x="1542" y="742.4" font-size="24" font-weight="700" fill="#0F172A" text-anchor="start" >일일 알람 리포트</text><text x="1502" y="779.3" font-size="18" font-weight="400" fill="#64748B" text-anchor="start" >메일 · 매일 아침</text><path d="M1400.0,755.0 L1465.0,755.0" fill="none" stroke="#64748B" stroke-width="2.5" stroke-linejoin="round"/><polygon points="1477.0,755.0 1462.0,761.3 1462.0,748.7" fill="#64748B"/><path d="M1670.0,700.0 L1670.0,635.0" fill="none" stroke="#64748B" stroke-width="2.5" stroke-linejoin="round"/><polygon points="1670.0,623.0 1676.3,638.0 1663.7,638.0" fill="#64748B"/><rect x="60" y="872" width="1800" height="170" rx="20" fill="#F8FAFC" stroke="#E2E8F0" stroke-width="2" /><text x="96" y="935" font-size="26" font-weight="700" fill="#0F172A" text-anchor="start" >대상 시스템</text><text x="96" y="968" font-size="18" font-weight="400" fill="#64748B" text-anchor="start" >디지털 트윈 · 28개 사이트</text><rect x="470" y="912" width="146" height="52" rx="12" fill="#fff" stroke="#CBD5E1" stroke-width="1.5" /><text x="543.0" y="945" font-size="20" font-weight="700" fill="#334155" text-anchor="middle" >설비 데이터</text><path d="M626.0,938.0 L644.0,938.0" fill="none" stroke="#94A3B8" stroke-width="2" stroke-linejoin="round"/><polygon points="656.0,938.0 641.0,944.3 641.0,931.7" fill="#94A3B8"/><rect x="666" y="912" width="100" height="52" rx="12" fill="#fff" stroke="#CBD5E1" stroke-width="1.5" /><text x="716.0" y="945" font-size="20" font-weight="700" fill="#334155" text-anchor="middle" >Kafka</text><path d="M776.0,938.0 L794.0,938.0" fill="none" stroke="#94A3B8" stroke-width="2" stroke-linejoin="round"/><polygon points="806.0,938.0 791.0,944.3 791.0,931.7" fill="#94A3B8"/><rect x="816" y="912" width="146" height="52" rx="12" fill="#fff" stroke="#CBD5E1" stroke-width="1.5" /><text x="889.0" y="945" font-size="20" font-weight="700" fill="#334155" text-anchor="middle" >처리 서비스</text><path d="M972.0,938.0 L990.0,938.0" fill="none" stroke="#94A3B8" stroke-width="2" stroke-linejoin="round"/><polygon points="1002.0,938.0 987.0,944.3 987.0,931.7" fill="#94A3B8"/><rect x="1012" y="912" width="208" height="52" rx="12" fill="#fff" stroke="#CBD5E1" stroke-width="1.5" /><text x="1116.0" y="945" font-size="20" font-weight="700" fill="#334155" text-anchor="middle" >Redis · MongoDB</text><path d="M1230.0,938.0 L1248.0,938.0" fill="none" stroke="#94A3B8" stroke-width="2" stroke-linejoin="round"/><polygon points="1260.0,938.0 1245.0,944.3 1245.0,931.7" fill="#94A3B8"/><rect x="1270" y="912" width="130" height="52" rx="12" fill="#fff" stroke="#CBD5E1" stroke-width="1.5" /><text x="1335.0" y="945" font-size="20" font-weight="700" fill="#334155" text-anchor="middle" >REST API</text><path d="M1410.0,938.0 L1428.0,938.0" fill="none" stroke="#94A3B8" stroke-width="2" stroke-linejoin="round"/><polygon points="1440.0,938.0 1425.0,944.3 1425.0,931.7" fill="#94A3B8"/><rect x="1450" y="912" width="126" height="52" rx="12" fill="#fff" stroke="#CBD5E1" stroke-width="1.5" /><text x="1513.0" y="945" font-size="20" font-weight="700" fill="#334155" text-anchor="middle" >운영 화면</text><g transform="translate(470,994) scale(0.9166666666666666)" fill="none" stroke="#475569" color="#475569" stroke-width="2.400" stroke-linecap="round" stroke-linejoin="round"><rect x="5" y="11" width="14" height="10" rx="2"/><path d="M8 11V8a4 4 0 0 1 8 0v3"/></g><text x="502" y="1012" font-size="19" font-weight="700" fill="#1E293B" text-anchor="start" >모든 연결은 읽기 전용 — 대상 시스템을 바꾸는 기능 자체가 없습니다</text><path d="M225.0,870.0 L225.0,635.0" fill="none" stroke="#475569" stroke-width="2.5" stroke-linejoin="round"/><polygon points="225.0,623.0 231.3,638.0 218.7,638.0" fill="#475569"/><rect x="182.0" y="730.5" width="86.0" height="29" rx="14.5" fill="#fff" stroke="#475569" stroke-width="1.5" /><g transform="translate(192.0,737.5) scale(0.625)" fill="none" stroke="#475569" color="#475569" stroke-width="3.520" stroke-linecap="round" stroke-linejoin="round"><rect x="5" y="11" width="14" height="10" rx="2"/><path d="M8 11V8a4 4 0 0 1 8 0v3"/></g><text x="213.0" y="750.4" font-size="15" font-weight="700" fill="#1E293B" text-anchor="start" >읽기만</text><path d="M685.0,870.0 L685.0,609.0" fill="none" stroke="#475569" stroke-width="2.5" stroke-linejoin="round"/><polygon points="685.0,597.0 691.3,612.0 678.7,612.0" fill="#475569"/><rect x="642.0" y="735.5" width="86.0" height="29" rx="14.5" fill="#fff" stroke="#475569" stroke-width="1.5" /><g transform="translate(652.0,742.5) scale(0.625)" fill="none" stroke="#475569" color="#475569" stroke-width="3.520" stroke-linecap="round" stroke-linejoin="round"><rect x="5" y="11" width="14" height="10" rx="2"/><path d="M8 11V8a4 4 0 0 1 8 0v3"/></g><text x="673.0" y="755.4" font-size="15" font-weight="700" fill="#1E293B" text-anchor="start" >읽기만</text><path d="M1245.0,870.0 L1245.0,825.0" fill="none" stroke="#475569" stroke-width="2.5" stroke-linejoin="round"/><polygon points="1245.0,813.0 1251.3,828.0 1238.7,828.0" fill="#475569"/><rect x="1202.0" y="827.5" width="86.0" height="29" rx="14.5" fill="#fff" stroke="#475569" stroke-width="1.5" /><g transform="translate(1212.0,834.5) scale(0.625)" fill="none" stroke="#475569" color="#475569" stroke-width="3.520" stroke-linecap="round" stroke-linejoin="round"><rect x="5" y="11" width="14" height="10" rx="2"/><path d="M8 11V8a4 4 0 0 1 8 0v3"/></g><text x="1233.0" y="847.4" font-size="15" font-weight="700" fill="#1E293B" text-anchor="start" >읽기만</text></svg>