<svg xmlns="http://www.w3.org/2000/svg" width="1920" height="1080" viewBox="0 0 1920 1080" font-family="'Malgun Gothic', '맑은 고딕', 'Noto Sans KR', sans-serif"><rect width="1920" height="1080" fill="#FFFFFF"/><rect x="60" y="40" width="1800" height="1000" rx="22" fill="#fff" stroke="#CBD5E1" stroke-width="2" /><path d="M60,62 a22,22 0 0 1 22,-22 h1756 a22,22 0 0 1 22,22 v40 h-1800 z" fill="#F8FAFC"/><line x1="60" y1="102" x2="1860" y2="102" stroke="#CBD5E1" stroke-width="1.5"/><circle cx="96" cy="71" r="7" fill="#F87171"/><circle cx="120" cy="71" r="7" fill="#FBBF24"/><circle cx="144" cy="71" r="7" fill="#34D399"/><rect x="190" y="56" width="640" height="32" rx="16" fill="#fff" stroke="#CBD5E1" stroke-width="1.5" /><g transform="translate(204,63) scale(0.75)" fill="none" stroke="#64748B" color="#64748B" stroke-width="2.933" stroke-linecap="round" stroke-linejoin="round"><circle cx="12" cy="12" r="9"/><path d="M3 12h18M12 3c3 3.5 3 14.5 0 18M12 3c-3 3.5-3 14.5 0 18"/></g><text x="230" y="78" font-size="16" font-weight="400" fill="#64748B" text-anchor="start" >운영 모니터링  /  사건 문의</text><rect x="1677.0" y="56.5" width="150.0" height="29" rx="14.5" fill="#EFF6FF" stroke="#2563EB" stroke-width="1.5" /><text x="1689.0" y="76.4" font-size="15" font-weight="700" fill="#1E40AF" text-anchor="start" >비전 · 화면 목업</text><text x="96" y="148" font-size="24" font-weight="700" fill="#0F172A" text-anchor="start" >새 문의</text><rect x="200" y="124" width="87.84" height="30" rx="8" fill="#EFF6FF" stroke="#2563EB" stroke-width="1.6" /><text x="210" y="144" font-size="16" font-weight="700" fill="#2563EB" text-anchor="start" >사업부 A</text><rect x="295.84000000000003" y="124" width="87.84" height="30" rx="8" fill="#EFF6FF" stroke="#2563EB" stroke-width="1.6" /><text x="305.84000000000003" y="144" font-size="16" font-weight="700" fill="#2563EB" text-anchor="start" >사업장 1</text><text x="395.68000000000006" y="145" font-size="15" font-weight="400" fill="#64748B" text-anchor="start" >질문에서 찾음</text><g transform="translate(726,178) scale(0.9166666666666666)" fill="none" stroke="#0F766E" color="#0F766E" stroke-width="2.400" stroke-linecap="round" stroke-linejoin="round"><circle cx="12" cy="8" r="4"/><path d="M4 21c0-4.4 3.6-7 8-7s8 2.6 8 7"/></g><rect x="250" y="172" width="460" height="84" rx="16" fill="#ECFDF5" stroke="#0F766E" stroke-width="1.8" /><text x="270" y="208" font-size="19" font-weight="400" fill="#0F172A" text-anchor="start" >우리 사업부에 데이터는 있는데</text><text x="270" y="236" font-size="19" font-weight="400" fill="#0F172A" text-anchor="start" >왜 운영 시스템에는 안 나오지?</text><g transform="translate(96,278) scale(0.9166666666666666)" fill="none" stroke="#2563EB" color="#2563EB" stroke-width="2.400" stroke-linecap="round" stroke-linejoin="round"><path d="M12 3l1.8 5.2L19 10l-5.2 1.8L12 17l-1.8-5.2L5 10l5.2-1.8z"/><path d="M19 16l.7 2 2 .7-2 .7-.7 2-.7-2-2-.7 2-.7z"/></g><rect x="128" y="272" width="400" height="84" rx="16" fill="#EFF6FF" stroke="#2563EB" stroke-width="1.8" /><text x="148" y="308" font-size="19" font-weight="400" fill="#0F172A" text-anchor="start" >어느 화면의 어떤 값인가요?</text><text x="148" y="336" font-size="19" font-weight="400" fill="#0F172A" text-anchor="start" >언제부터 그랬나요?</text><g transform="translate(726,378) scale(0.9166666666666666)" fill="none" stroke="#0F766E" color="#0F766E" stroke-width="2.400" stroke-linecap="round" stroke-linejoin="round"><circle cx="12" cy="8" r="4"/><path d="M4 21c0-4.4 3.6-7 8-7s8 2.6 8 7"/></g><rect x="330" y="372" width="380" height="56" rx="16" fill="#ECFDF5" stroke="#0F766E" stroke-width="1.8" /><text x="350" y="408" font-size="19" font-weight="400" fill="#0F172A" text-anchor="start" >알람 현황 화면, 오늘 아침부터 0이에요</text><rect x="96" y="448" width="143.52" height="30" rx="8" fill="#F1F5F9" stroke="#475569" stroke-width="1.6" /><text x="106" y="468" font-size="16" font-weight="700" fill="#475569" text-anchor="start" >사건 c-31 접수</text><rect x="96" y="500" width="662" height="500" rx="16" fill="#F8FAFC" stroke="#CBD5E1" stroke-width="1.5" /><text x="120" y="542" font-size="22" font-weight="700" fill="#0F172A" text-anchor="start" >진행 상황</text><rect x="236.8" y="521.0" width="98.4" height="28" rx="14.0" fill="#fff" stroke="#CBD5E1" stroke-width="1.5" /><text x="246.8" y="540.04" font-size="14" font-weight="700" fill="#64748B" text-anchor="start" >실시간 표시</text><line x1="136" y1="590" x2="136" y2="940" stroke="#CBD5E1" stroke-width="3"/><circle cx="136" cy="590" r="17" fill="#F1F5F9" stroke="#475569" stroke-width="2.2"/><g transform="translate(127,581) scale(0.75)" fill="none" stroke="#475569" color="#475569" stroke-width="4.000" stroke-linecap="round" stroke-linejoin="round"><path d="M5 12l5 5 9-10"/></g><text x="170" y="597" font-size="20" font-weight="700" fill="#0F172A" text-anchor="start" >접수</text><text x="306" y="597" font-size="18" font-weight="400" fill="#64748B" text-anchor="start" >사이트 · 증상 확정</text><circle cx="136" cy="660" r="17" fill="#F1F5F9" stroke="#475569" stroke-width="2.2"/><g transform="translate(127,651) scale(0.75)" fill="none" stroke="#475569" color="#475569" stroke-width="4.000" stroke-linecap="round" stroke-linejoin="round"><path d="M5 12l5 5 9-10"/></g><text x="170" y="667" font-size="20" font-weight="700" fill="#0F172A" text-anchor="start" >가설 수립</text><text x="306" y="667" font-size="18" font-weight="400" fill="#64748B" text-anchor="start" >3건</text><circle cx="136" cy="730" r="17" fill="#F1F5F9" stroke="#475569" stroke-width="2.2"/><g transform="translate(127,721) scale(0.75)" fill="none" stroke="#475569" color="#475569" stroke-width="4.000" stroke-linecap="round" stroke-linejoin="round"><path d="M5 12l5 5 9-10"/></g><text x="170" y="737" font-size="20" font-weight="700" fill="#0F172A" text-anchor="start" >1차 조사</text><text x="306" y="737" font-size="18" font-weight="400" fill="#64748B" text-anchor="start" >조회 3건</text><circle cx="136" cy="800" r="17" fill="#F1F5F9" stroke="#475569" stroke-width="2.2"/><g transform="translate(127,791) scale(0.75)" fill="none" stroke="#475569" color="#475569" stroke-width="4.000" stroke-linecap="round" stroke-linejoin="round"><path d="M5 12l5 5 9-10"/></g><text x="170" y="807" font-size="20" font-weight="700" fill="#0F172A" text-anchor="start" >2차 조사</text><text x="306" y="807" font-size="18" font-weight="400" fill="#64748B" text-anchor="start" >조회 2건</text><circle cx="136" cy="870" r="17" fill="#F1F5F9" stroke="#475569" stroke-width="2.2"/><g transform="translate(127,861) scale(0.75)" fill="none" stroke="#475569" color="#475569" stroke-width="4.000" stroke-linecap="round" stroke-linejoin="round"><path d="M5 12l5 5 9-10"/></g><text x="170" y="877" font-size="20" font-weight="700" fill="#0F172A" text-anchor="start" >판정</text><text x="306" y="877" font-size="18" font-weight="400" fill="#64748B" text-anchor="start" >원인 후보 2개</text><circle cx="136" cy="940" r="17" fill="#F1F5F9" stroke="#475569" stroke-width="2.2"/><g transform="translate(127,931) scale(0.75)" fill="none" stroke="#475569" color="#475569" stroke-width="4.000" stroke-linecap="round" stroke-linejoin="round"><path d="M5 12l5 5 9-10"/></g><text x="170" y="947" font-size="20" font-weight="700" fill="#0F172A" text-anchor="start" >근거 검증</text><text x="306" y="947" font-size="18" font-weight="400" fill="#64748B" text-anchor="start" >통과</text><rect x="800" y="124" width="1024" height="876" rx="16" fill="#fff" stroke="#CBD5E1" stroke-width="1.5" /><text x="828" y="172" font-size="26" font-weight="700" fill="#0F172A" text-anchor="start" >원인 후보</text><rect x="1634" y="146" width="135.84" height="30" rx="8" fill="#F1F5F9" stroke="#475569" stroke-width="1.6" /><text x="1644" y="166" font-size="16" font-weight="700" fill="#475569" text-anchor="start" >근거 검증 통과</text><rect x="828" y="200" width="968" height="156" rx="14" fill="#EFF6FF" stroke="#2563EB" stroke-width="2" /><circle cx="864" cy="240" r="18" fill="#2563EB"/><text x="864" y="247" font-size="19" font-weight="700" fill="#fff" text-anchor="middle" >1</text><text x="896" y="248" font-size="23" font-weight="700" fill="#0F172A" text-anchor="start" >저장 서비스 — 메시지 소비 정지</text><text x="1524" y="246" font-size="16" font-weight="700" fill="#64748B" text-anchor="start" >신뢰도</text><rect x="1588" y="232" width="36" height="16" rx="4" fill="#2563EB" stroke="none" stroke-width="0" /><rect x="1630" y="232" width="36" height="16" rx="4" fill="#2563EB" stroke="none" stroke-width="0" /><rect x="1672" y="232" width="36" height="16" rx="4" fill="#2563EB" stroke="none" stroke-width="0" /><text x="1728" y="247" font-size="18" font-weight="700" fill="#1E40AF" text-anchor="start" >높음</text><rect x="896" y="270" width="39.84" height="30" rx="8" fill="#fff" stroke="#475569" stroke-width="1.6" /><text x="906" y="290" font-size="16" font-weight="700" fill="#475569" text-anchor="start" >E3</text><rect x="943.84" y="270" width="39.84" height="30" rx="8" fill="#fff" stroke="#475569" stroke-width="1.6" /><text x="953.84" y="290" font-size="16" font-weight="700" fill="#475569" text-anchor="start" >E4</text><rect x="991.6800000000001" y="270" width="39.84" height="30" rx="8" fill="#fff" stroke="#475569" stroke-width="1.6" /><text x="1001.6800000000001" y="290" font-size="16" font-weight="700" fill="#475569" text-anchor="start" >E5</text><text x="896" y="336" font-size="18" font-weight="400" fill="#334155" text-anchor="start" >대기열에 메시지가 쌓이는데 저장소에는 새 기록이 없다</text><rect x="828" y="374" width="968" height="156" rx="14" fill="#FFFFFF" stroke="#94A3B8" stroke-width="2" /><circle cx="864" cy="414" r="18" fill="#94A3B8"/><text x="864" y="421" font-size="19" font-weight="700" fill="#fff" text-anchor="middle" >2</text><text x="896" y="422" font-size="23" font-weight="700" fill="#0F172A" text-anchor="start" >처리 서비스 — 메시지 생성 지연</text><text x="1524" y="420" font-size="16" font-weight="700" fill="#64748B" text-anchor="start" >신뢰도</text><rect x="1588" y="406" width="36" height="16" rx="4" fill="#94A3B8" stroke="none" stroke-width="0" /><rect x="1630" y="406" width="36" height="16" rx="4" fill="#E2E8F0" stroke="none" stroke-width="0" /><rect x="1672" y="406" width="36" height="16" rx="4" fill="#E2E8F0" stroke="none" stroke-width="0" /><text x="1728" y="421" font-size="18" font-weight="700" fill="#334155" text-anchor="start" >낮음</text><rect x="896" y="444" width="39.84" height="30" rx="8" fill="#fff" stroke="#475569" stroke-width="1.6" /><text x="906" y="464" font-size="16" font-weight="700" fill="#475569" text-anchor="start" >E6</text><text x="896" y="510" font-size="18" font-weight="400" fill="#334155" text-anchor="start" >생성이 평소보다 느렸지만 0건을 설명하지는 못한다</text><text x="828" y="588" font-size="18" font-weight="700" fill="#64748B" text-anchor="start" >조치 권고</text><text x="828" y="624" font-size="20" font-weight="700" fill="#0F172A" text-anchor="start" >① 저장 서비스 재기동</text><rect x="1060" y="604" width="37.36" height="28" rx="8" fill="#fff" stroke="#475569" stroke-width="1.6" /><text x="1070" y="622" font-size="14" font-weight="700" fill="#475569" text-anchor="start" >E4</text><text x="828" y="658" font-size="20" font-weight="700" fill="#0F172A" text-anchor="start" >② 정지 원인 로그 확인</text><rect x="828" y="684" width="968" height="70" rx="12" fill="#fff" stroke="#94A3B8" stroke-width="1.6" stroke-dasharray="7 5" /><rect x="848" y="708" width="18" height="18" rx="4" fill="#fff" stroke="#64748B" stroke-width="2" /><text x="878" y="725" font-size="17" font-weight="700" fill="#334155" text-anchor="start" >확인하지 못한 것</text><text x="1040" y="725" font-size="17" font-weight="400" fill="#0F172A" text-anchor="start" >저장 서비스 로그 — 조회 범위 밖이라 사람 확인 필요</text><rect x="828" y="788" width="968" height="184" rx="14" fill="#ECFDF5" stroke="#0F766E" stroke-width="2" /><g transform="translate(852,814) scale(1.0833333333333333)" fill="none" stroke="#0F766E" color="#0F766E" stroke-width="2.031" stroke-linecap="round" stroke-linejoin="round"><path d="M3 12V4h8l10 10-8 8z"/><circle cx="7.5" cy="7.5" r="1.3"/></g><text x="890" y="836" font-size="22" font-weight="700" fill="#115E59" text-anchor="start" >조치한 뒤 실제 원인을 알려 주세요</text><text x="852" y="876" font-size="18" font-weight="400" fill="#334155" text-anchor="start" >맞았는지 · 일부만 맞았는지 · 틀렸는지 · 모르겠는지</text><rect x="852" y="902" width="200" height="50" rx="10" fill="#0F766E" stroke="#0F766E" stroke-width="2" /><text x="952" y="934" font-size="19" font-weight="700" fill="#fff" text-anchor="middle" >실제 원인 기록</text><text x="1076" y="934" font-size="18" font-weight="700" fill="#115E59" text-anchor="start" >→ 정확도 측정과 다음 조사의 출발점으로 쓰인다</text></svg>